<svg xmlns="http://www.w3.org/2000/svg" width="24.044" height="24.382" viewBox="0 0 24.044 24.382" fill="none">
  <path d="M 4.717 16.209 L 9.447 13.52 L 9.526 13.286 L 9.447 13.156 L 9.216 13.156 L 8.424 13.107 L 5.722 13.033 L 3.378 12.934 L 1.108 12.811 L 0.536 12.687 L 0 11.972 L 0.055 11.614 L 0.536 11.287 L 1.223 11.349 L 2.745 11.454 L 5.028 11.614 L 6.684 11.713 L 9.137 11.972 L 9.526 11.972 L 9.581 11.811 L 9.447 11.713 L 9.344 11.614 L 6.982 9.992 L 4.425 8.277 L 3.086 7.29 L 2.362 6.791 L 1.997 6.322 L 1.838 5.298 L 2.496 4.564 L 3.378 4.626 L 3.604 4.688 L 4.498 5.385 L 6.41 6.883 L 8.905 8.746 L 9.271 9.054 L 9.417 8.95 L 9.435 8.876 L 9.271 8.598 L 7.913 6.112 L 6.464 3.584 L 5.819 2.535 L 5.649 1.906 C 5.588 1.647 5.545 1.431 5.545 1.166 L 6.294 0.136 L 6.708 0 L 7.706 0.136 L 8.126 0.506 L 8.747 1.943 L 9.751 4.206 L 11.31 7.284 L 11.766 8.197 L 12.01 9.042 L 12.101 9.301 L 12.259 9.301 L 12.259 9.153 L 12.387 7.42 L 12.624 5.292 L 12.856 2.553 L 12.935 1.783 L 13.312 0.857 L 14.061 0.358 L 14.645 0.641 L 15.126 1.338 L 15.059 1.789 L 14.773 3.67 L 14.213 6.618 L 13.848 8.592 L 14.061 8.592 L 14.304 8.345 L 15.291 7.019 L 16.946 4.922 L 17.677 4.089 L 18.529 3.17 L 19.077 2.732 L 20.111 2.732 L 20.872 3.88 L 20.532 5.064 L 19.466 6.433 L 18.584 7.593 L 17.318 9.32 L 16.526 10.701 L 16.599 10.812 L 16.788 10.794 L 19.649 10.177 L 21.195 9.893 L 23.039 9.573 L 23.873 9.967 L 23.965 10.368 L 23.636 11.189 L 21.664 11.682 L 19.351 12.151 L 15.905 12.977 L 15.863 13.008 L 15.911 13.07 L 17.464 13.218 L 18.127 13.255 L 19.752 13.255 L 22.778 13.483 L 23.569 14.013 L 24.044 14.661 L 23.965 15.154 L 22.747 15.784 L 21.104 15.389 L 17.269 14.464 L 15.954 14.131 L 15.771 14.131 L 15.771 14.242 L 16.867 15.327 L 18.876 17.165 L 21.39 19.534 L 21.518 20.12 L 21.195 20.582 L 20.854 20.533 L 18.645 18.849 L 17.792 18.09 L 15.863 16.444 L 15.735 16.444 L 15.735 16.616 L 16.179 17.276 L 18.529 20.854 L 18.651 21.951 L 18.48 22.309 L 17.871 22.525 L 17.202 22.402 L 15.826 20.446 L 14.408 18.245 L 13.264 16.271 L 13.124 16.351 L 12.448 23.722 L 12.131 24.098 L 11.401 24.382 L 10.792 23.913 L 10.47 23.154 L 10.792 21.655 L 11.182 19.7 L 11.498 18.146 L 11.784 16.215 L 11.955 15.574 L 11.943 15.531 L 11.803 15.549 L 10.366 17.548 L 8.181 20.539 L 6.452 22.414 L 6.038 22.581 L 5.32 22.204 L 5.387 21.532 L 5.789 20.934 L 8.181 17.85 L 9.624 15.938 L 10.555 14.834 L 10.549 14.673 L 10.494 14.673 L 4.139 18.855 L 3.007 19.003 L 2.52 18.541 L 2.581 17.782 L 2.812 17.535 L 4.724 16.203 L 4.717 16.209 Z" fill="currentColor" fill-rule="nonzero"></path>
</svg>