<svg xmlns="http://www.w3.org/2000/svg" width="35.144" height="35.144" viewBox="0 0 35.144 35.144" fill="none">
  <path d="M 13.242 7.5 C 15.166 4.167 19.977 4.167 21.902 7.5 L 28.459 18.858 C 30.384 22.191 27.978 26.358 24.129 26.358 L 11.014 26.358 C 7.165 26.358 4.76 22.191 6.684 18.858 L 13.242 7.5 Z" fill="currentColor" fill-rule="nonzero"></path>
  <path d="M 13.242 7.5 L 12.376 7 L 13.242 7.5 Z M 21.902 7.5 L 21.036 8 L 27.593 19.358 L 28.459 18.858 L 29.325 18.358 L 22.768 7 L 21.902 7.5 Z M 24.129 26.358 L 24.129 25.358 L 11.014 25.358 L 11.014 26.358 L 11.014 27.358 L 24.129 27.358 L 24.129 26.358 Z M 6.684 18.858 L 7.55 19.358 L 14.108 8 L 13.242 7.5 L 12.376 7 L 5.818 18.358 L 6.684 18.858 Z M 11.014 26.358 L 11.014 25.358 C 7.935 25.358 6.011 22.024 7.55 19.358 L 6.684 18.858 L 5.818 18.358 C 3.509 22.358 6.396 27.358 11.014 27.358 L 11.014 26.358 Z M 28.459 18.858 L 27.593 19.358 C 29.133 22.024 27.208 25.358 24.129 25.358 L 24.129 26.358 L 24.129 27.358 C 28.748 27.358 31.635 22.358 29.325 18.358 L 28.459 18.858 Z M 21.902 7.5 L 22.768 7 C 20.459 3 14.685 3 12.376 7 L 13.242 7.5 L 14.108 8 C 15.647 5.333 19.496 5.333 21.036 8 L 21.902 7.5 Z" fill="currentColor" fill-rule="nonzero"></path>
</svg>