<svg xmlns="http://www.w3.org/2000/svg" width="55" height="47.667" viewBox="0 0 55 47.667" fill="none">
  <path d="M 51.476 17.726 C 53.657 21.505 53.657 26.161 51.476 29.941 L 44.778 41.552 C 42.595 45.336 38.559 47.667 34.191 47.667 L 20.809 47.667 C 16.441 47.667 12.405 45.336 10.222 41.552 L 3.524 29.941 C 1.343 26.161 1.343 21.505 3.524 17.726 L 10.222 6.115 C 12.405 2.331 16.441 0 20.809 0 L 34.191 0 C 38.559 0 42.595 2.331 44.778 6.115 L 51.476 17.726 Z" fill="currentColor" fill-rule="nonzero"></path>
  <path d="M 44.778 6.115 L 43.719 6.725 L 44.778 6.115 Z M 3.524 17.726 L 4.582 18.336 L 3.524 17.726 Z M 10.222 41.552 L 9.164 42.163 L 10.222 41.552 Z M 44.778 41.552 L 43.719 40.941 L 44.778 41.552 Z M 51.476 29.941 L 50.418 29.33 L 43.719 40.941 L 44.778 41.552 L 45.836 42.163 L 52.535 30.552 L 51.476 29.941 Z M 34.191 47.667 L 34.191 46.444 L 20.809 46.444 L 20.809 47.667 L 20.809 48.889 L 34.191 48.889 L 34.191 47.667 Z M 10.222 41.552 L 11.281 40.941 L 4.582 29.33 L 3.524 29.941 L 2.465 30.552 L 9.164 42.163 L 10.222 41.552 Z M 3.524 17.726 L 4.582 18.336 L 11.281 6.725 L 10.222 6.115 L 9.164 5.504 L 2.465 17.115 L 3.524 17.726 Z M 20.809 0 L 20.809 1.222 L 34.191 1.222 L 34.191 0 L 34.191 -1.222 L 20.809 -1.222 L 20.809 0 Z M 44.778 6.115 L 43.719 6.725 L 50.418 18.336 L 51.476 17.726 L 52.535 17.115 L 45.836 5.504 L 44.778 6.115 Z M 34.191 0 L 34.191 1.222 C 38.122 1.222 41.754 3.32 43.719 6.725 L 44.778 6.115 L 45.836 5.504 C 43.435 1.342 38.996 -1.222 34.191 -1.222 L 34.191 0 Z M 10.222 6.115 L 11.281 6.725 C 13.246 3.32 16.878 1.222 20.809 1.222 L 20.809 0 L 20.809 -1.222 C 16.004 -1.222 11.565 1.342 9.164 5.504 L 10.222 6.115 Z M 3.524 29.941 L 4.582 29.33 C 2.62 25.928 2.62 21.738 4.582 18.336 L 3.524 17.726 L 2.465 17.115 C 0.066 21.273 0.066 26.394 2.465 30.552 L 3.524 29.941 Z M 20.809 47.667 L 20.809 46.444 C 16.878 46.444 13.246 44.347 11.281 40.941 L 10.222 41.552 L 9.164 42.163 C 11.565 46.325 16.004 48.889 20.809 48.889 L 20.809 47.667 Z M 44.778 41.552 L 43.719 40.941 C 41.754 44.347 38.122 46.444 34.191 46.444 L 34.191 47.667 L 34.191 48.889 C 38.996 48.889 43.435 46.325 45.836 42.163 L 44.778 41.552 Z M 51.476 29.941 L 52.535 30.552 C 54.934 26.394 54.934 21.273 52.535 17.115 L 51.476 17.726 L 50.418 18.336 C 52.38 21.738 52.38 25.928 50.418 29.33 L 51.476 29.941 Z" fill="currentColor" fill-rule="nonzero"></path>
</svg>