<svg xmlns="http://www.w3.org/2000/svg" width="84" height="84" viewBox="0 0 84 84" fill="none">
  <path d="M 26 9.238 C 33.809 4.729 37.713 2.475 42 2.475 C 46.287 2.475 50.191 4.729 58 9.238 L 62.373 11.762 C 70.182 16.271 74.086 18.525 76.229 22.238 C 78.373 25.95 78.373 30.459 78.373 39.475 L 78.373 44.525 C 78.373 53.541 78.373 58.05 76.229 61.762 C 74.086 65.475 70.182 67.729 62.373 72.238 L 58 74.762 C 50.191 79.271 46.287 81.525 42 81.525 C 37.713 81.525 33.809 79.271 26 74.762 L 21.627 72.238 C 13.818 67.729 9.914 65.475 7.771 61.762 C 5.627 58.05 5.627 53.541 5.627 44.525 L 5.627 39.475 C 5.627 30.459 5.627 25.95 7.771 22.238 C 9.914 18.525 13.818 16.271 21.627 11.762 L 26 9.238 Z" fill="currentColor" fill-rule="nonzero"></path>
  <path d="M 7.771 22.238 L 8.204 22.488 L 7.771 22.238 Z M 21.627 72.238 L 21.377 72.671 L 21.627 72.238 Z M 7.771 61.762 L 8.204 61.512 L 7.771 61.762 Z M 42 81.525 L 42 82.025 L 42 81.525 Z M 76.229 61.762 L 75.796 61.512 L 76.229 61.762 Z M 62.373 11.762 L 62.123 12.195 L 62.373 11.762 Z M 76.229 22.238 L 76.662 21.988 L 76.229 22.238 Z M 58 9.238 L 57.75 9.671 L 58 9.238 Z M 42 2.475 L 42 1.975 L 42 2.475 Z M 58 9.238 L 57.75 9.671 L 62.123 12.195 L 62.373 11.762 L 62.623 11.329 L 58.25 8.805 L 58 9.238 Z M 78.373 39.475 L 77.873 39.475 L 77.873 44.525 L 78.373 44.525 L 78.873 44.525 L 78.873 39.475 L 78.373 39.475 Z M 62.373 72.238 L 62.123 71.805 L 57.75 74.329 L 58 74.762 L 58.25 75.195 L 62.623 72.671 L 62.373 72.238 Z M 26 74.762 L 26.25 74.329 L 21.877 71.805 L 21.627 72.238 L 21.377 72.671 L 25.75 75.195 L 26 74.762 Z M 5.627 44.525 L 6.127 44.525 L 6.127 39.475 L 5.627 39.475 L 5.127 39.475 L 5.127 44.525 L 5.627 44.525 Z M 21.627 11.762 L 21.877 12.195 L 26.25 9.671 L 26 9.238 L 25.75 8.805 L 21.377 11.329 L 21.627 11.762 Z M 5.627 39.475 L 6.127 39.475 C 6.127 34.957 6.127 31.605 6.392 28.917 C 6.656 26.239 7.18 24.261 8.204 22.488 L 7.771 22.238 L 7.338 21.988 C 6.218 23.927 5.669 26.059 5.397 28.818 C 5.126 31.567 5.127 34.977 5.127 39.475 L 5.627 39.475 Z M 21.627 11.762 L 21.377 11.329 C 17.481 13.579 14.528 15.283 12.283 16.892 C 10.029 18.507 8.457 20.048 7.338 21.988 L 7.771 22.238 L 8.204 22.488 C 9.227 20.714 10.679 19.272 12.866 17.705 C 15.061 16.131 17.964 14.454 21.877 12.195 L 21.627 11.762 Z M 21.627 72.238 L 21.877 71.805 C 17.964 69.546 15.061 67.869 12.866 66.295 C 10.679 64.728 9.227 63.286 8.204 61.512 L 7.771 61.762 L 7.338 62.012 C 8.457 63.952 10.029 65.493 12.283 67.108 C 14.528 68.717 17.481 70.421 21.377 72.671 L 21.627 72.238 Z M 5.627 44.525 L 5.127 44.525 C 5.127 49.023 5.126 52.433 5.397 55.182 C 5.669 57.941 6.218 60.073 7.338 62.012 L 7.771 61.762 L 8.204 61.512 C 7.18 59.739 6.656 57.761 6.392 55.083 C 6.127 52.395 6.127 49.043 6.127 44.525 L 5.627 44.525 Z M 58 74.762 L 57.75 74.329 C 53.837 76.588 50.934 78.264 48.473 79.379 C 46.023 80.489 44.048 81.025 42 81.025 L 42 81.525 L 42 82.025 C 44.24 82.025 46.36 81.434 48.886 80.29 C 51.401 79.15 54.354 77.445 58.25 75.195 L 58 74.762 Z M 26 74.762 L 25.75 75.195 C 29.646 77.445 32.599 79.15 35.114 80.29 C 37.64 81.434 39.76 82.025 42 82.025 L 42 81.525 L 42 81.025 C 39.952 81.025 37.977 80.489 35.527 79.379 C 33.066 78.264 30.163 76.588 26.25 74.329 L 26 74.762 Z M 78.373 44.525 L 77.873 44.525 C 77.873 49.043 77.873 52.395 77.608 55.083 C 77.344 57.761 76.82 59.739 75.796 61.512 L 76.229 61.762 L 76.662 62.012 C 77.782 60.073 78.331 57.941 78.603 55.182 C 78.874 52.433 78.873 49.023 78.873 44.525 L 78.373 44.525 Z M 62.373 72.238 L 62.623 72.671 C 66.519 70.421 69.472 68.717 71.717 67.108 C 73.971 65.493 75.543 63.952 76.662 62.012 L 76.229 61.762 L 75.796 61.512 C 74.773 63.286 73.321 64.728 71.134 66.295 C 68.939 67.869 66.036 69.546 62.123 71.805 L 62.373 72.238 Z M 62.373 11.762 L 62.123 12.195 C 66.036 14.454 68.939 16.131 71.134 17.705 C 73.321 19.272 74.773 20.714 75.796 22.488 L 76.229 22.238 L 76.662 21.988 C 75.543 20.048 73.971 18.507 71.717 16.892 C 69.472 15.283 66.519 13.579 62.623 11.329 L 62.373 11.762 Z M 78.373 39.475 L 78.873 39.475 C 78.873 34.977 78.874 31.567 78.603 28.818 C 78.331 26.059 77.782 23.927 76.662 21.988 L 76.229 22.238 L 75.796 22.488 C 76.82 24.261 77.344 26.239 77.608 28.917 C 77.873 31.605 77.873 34.957 77.873 39.475 L 78.373 39.475 Z M 58 9.238 L 58.25 8.805 C 54.354 6.555 51.401 4.85 48.886 3.71 C 46.36 2.566 44.24 1.975 42 1.975 L 42 2.475 L 42 2.975 C 44.048 2.975 46.023 3.511 48.473 4.621 C 50.934 5.736 53.837 7.412 57.75 9.671 L 58 9.238 Z M 26 9.238 L 26.25 9.671 C 30.163 7.412 33.066 5.736 35.527 4.621 C 37.977 3.511 39.952 2.975 42 2.975 L 42 2.475 L 42 1.975 C 39.76 1.975 37.64 2.566 35.114 3.71 C 32.599 4.85 29.646 6.555 25.75 8.805 L 26 9.238 Z" fill="currentColor" fill-rule="nonzero"></path>
</svg>